ent-savvy-finder\public\favicon.svg
<svg width="32" height="32" viewBox="0 0 32 32" fill="none" xmlns="http://www.w3.org/2000/svg">
  <rect width="32" height="32" rx="6" fill="#8B5CF6"/>
  <path d="M16 6C14.5 6 13.5 7 13.5 8.5V9.5C13.5 10 13 10.5 12.5 10.5H11C9.5 10.5 8.5 11.5 8.5 13V19.5C8.5 21 9.5 22 11 22H21C22.5 22 23.5 21 23.5 19.5V13C23.5 11.5 22.5 10.5 21 10.5H19.5C19 10.5 18.5 10 18.5 9.5V8.5C18.5 7 17.5 6 16 6Z" fill="white"/>
  <circle cx="16" cy="16" r="3" fill="#8B5CF6"/>
  <path d="M14 26L16 24L18 26" stroke="white" stroke-width="1.5" stroke-linecap="round" stroke-linejoin="round"/>
</svg>